<svg width="142" height="141" viewBox="0 0 142 141" fill="none" xmlns="http://www.w3.org/2000/svg">
<path d="M62.2385 134.405C62.5953 134.45 62.9176 134.551 63.2052 134.707C63.4923 134.868 63.7326 135.071 63.9263 135.316C64.1199 135.561 64.2612 135.838 64.3501 136.148C64.4345 136.457 64.4545 136.786 64.4101 137.134C64.3656 137.482 64.2636 137.795 64.1041 138.073C63.9401 138.35 63.7336 138.583 63.4845 138.772C63.2309 138.959 62.9453 139.093 62.6276 139.172C62.3094 139.255 61.9718 139.274 61.615 139.228C61.2717 139.184 60.9562 139.084 60.6686 138.928C60.3803 138.776 60.1471 138.572 59.9687 138.315L60.3279 138.037C60.4967 138.261 60.6931 138.431 60.917 138.547C61.1404 138.667 61.3876 138.744 61.6586 138.779C61.9432 138.816 62.2138 138.8 62.4704 138.731C62.7265 138.668 62.9564 138.557 63.1602 138.4C63.3634 138.246 63.5322 138.057 63.6667 137.831C63.7962 137.609 63.879 137.355 63.9154 137.071C63.9518 136.786 63.9356 136.518 63.8668 136.265C63.793 136.017 63.6772 135.791 63.5197 135.588C63.3615 135.388 63.1668 135.223 62.9356 135.093C62.7038 134.967 62.4456 134.886 62.161 134.849C61.8899 134.815 61.6312 134.827 61.3848 134.888C61.1383 134.948 60.9053 135.065 60.6856 135.239L60.4079 134.88C60.6451 134.676 60.9226 134.535 61.2402 134.456C61.5579 134.377 61.8907 134.36 62.2385 134.405Z" fill="white"/>
<path d="M52.5425 132.439L53.6987 135.218L53.2391 135.349L51.9817 132.288L52.5425 132.439ZM55.7025 133.288L54.4621 137.906L53.9871 137.778L55.2275 133.16L55.7025 133.288ZM54.8038 135.317L54.6886 135.745L53.2439 135.357L53.3591 134.929L54.8038 135.317ZM53.2757 135.055L53.703 135.254L51.368 137.074L50.8403 136.933L53.2757 135.055Z" fill="white"/>
<path d="M47.3727 130.71L45.5422 135.127L43.8888 134.442C43.5144 134.287 43.2178 134.092 42.9991 133.859C42.7787 133.629 42.644 133.371 42.5951 133.085C42.5403 132.801 42.5791 132.499 42.7116 132.179C42.8406 131.868 43.0258 131.629 43.2672 131.463C43.5026 131.3 43.7802 131.212 44.1 131.202C44.4198 131.192 44.767 131.264 45.1414 131.419L46.536 131.997L46.2363 132.132L46.9057 130.516L47.3727 130.71ZM46.2519 132.094L46.3661 132.407L44.984 131.835C44.5423 131.651 44.1686 131.608 43.863 131.703C43.5514 131.8 43.3233 132.024 43.1786 132.373C43.0321 132.726 43.0345 133.048 43.1857 133.337C43.3327 133.625 43.627 133.86 44.0688 134.043L45.4508 134.616L45.151 134.75L46.2519 132.094Z" fill="white"/>
<path d="M38.2096 126.261C38.5213 126.441 38.7816 126.659 38.9907 126.917C39.1935 127.176 39.3389 127.457 39.4269 127.76C39.5087 128.065 39.532 128.375 39.4968 128.691C39.4554 129.009 39.347 129.32 39.1718 129.624C38.9966 129.927 38.7829 130.175 38.5307 130.366C38.2724 130.558 37.9919 130.694 37.6894 130.772C37.3807 130.851 37.0646 130.866 36.7411 130.816C36.4154 130.77 36.0947 130.656 35.7792 130.474C35.4676 130.294 35.2103 130.075 35.0075 129.816C34.8024 129.561 34.6578 129.283 34.5737 128.982C34.4857 128.679 34.4624 128.368 34.5039 128.05C34.5413 127.73 34.6477 127.418 34.8229 127.115C34.9981 126.811 35.2149 126.563 35.4733 126.37C35.7277 126.175 36.0082 126.04 36.3146 125.964C36.6172 125.886 36.9313 125.871 37.257 125.917C37.5805 125.966 37.898 126.081 38.2096 126.261ZM37.9843 126.652C37.7358 126.508 37.4831 126.418 37.2263 126.38C36.9632 126.344 36.7104 126.358 36.4678 126.423C36.219 126.49 35.992 126.601 35.7869 126.756C35.5795 126.915 35.4041 127.119 35.2608 127.367C35.1174 127.616 35.0299 127.868 34.9984 128.123C34.9645 128.382 34.9821 128.634 35.0512 128.879C35.114 129.125 35.228 129.352 35.3932 129.557C35.5522 129.765 35.756 129.94 36.0045 130.083C36.253 130.227 36.5088 130.316 36.7718 130.353C37.0326 130.393 37.2874 130.379 37.5363 130.313C37.7789 130.247 38.0058 130.137 38.2172 129.98C38.4223 129.825 38.5965 129.623 38.7399 129.374C38.881 129.13 38.9684 128.878 39.0023 128.619C39.0322 128.358 39.0157 128.104 38.9529 127.857C38.8839 127.612 38.7679 127.385 38.6049 127.175C38.4397 126.97 38.2328 126.795 37.9843 126.652Z" fill="white"/>
<path d="M32.9173 122.893C32.9678 122.932 33.0136 122.973 33.0549 123.016C33.0989 123.056 33.1441 123.106 33.1906 123.165L32.8823 123.496C32.8322 123.434 32.7784 123.381 32.7208 123.337C32.5587 123.211 32.3802 123.174 32.1855 123.225C31.9843 123.276 31.7554 123.416 31.4987 123.643C31.2393 123.875 30.9393 124.195 30.5989 124.605L29.2908 126.184L26.7246 124.199L29.6508 120.417L30.0451 120.722L27.3029 124.266L27.2838 124.079L29.3044 125.642L29.1193 125.68L30.2339 124.34C30.541 123.973 30.8216 123.666 31.0758 123.42C31.3272 123.177 31.5618 122.993 31.7796 122.867C31.9945 122.746 32.1963 122.686 32.3848 122.688C32.5706 122.694 32.7481 122.762 32.9173 122.893Z" fill="white"/>
<path d="M26.1935 117.345C26.2382 117.39 26.2781 117.437 26.3131 117.486C26.3513 117.531 26.3895 117.587 26.4276 117.651L26.0774 117.938C26.0361 117.87 25.9899 117.81 25.9389 117.758C25.7952 117.612 25.6234 117.551 25.4235 117.575C25.2172 117.599 24.9716 117.707 24.6866 117.897C24.3984 118.091 24.0579 118.369 23.6652 118.729L22.1562 120.117L19.8812 117.804L23.2906 114.451L23.6403 114.807L20.4451 117.949L20.4515 117.76L22.2428 119.582L22.0543 119.595L23.3394 118.417C23.6931 118.095 24.0126 117.829 24.2977 117.619C24.5796 117.412 24.8369 117.261 25.0695 117.166C25.2989 117.075 25.5069 117.043 25.6935 117.07C25.8768 117.101 26.0434 117.192 26.1935 117.345Z" fill="white"/>
<path d="M15.8719 107.228C15.9221 107.304 15.9508 107.388 15.958 107.482C15.9627 107.572 15.9452 107.657 15.9057 107.737C15.8662 107.818 15.8028 107.887 15.7154 107.945C15.6356 107.998 15.5509 108.026 15.4612 108.031C15.3715 108.036 15.2863 108.018 15.2056 107.979C15.1224 107.936 15.0558 107.876 15.0056 107.8C14.9554 107.724 14.9279 107.641 14.9232 107.551C14.9186 107.462 14.936 107.376 14.9755 107.296C15.0125 107.211 15.0709 107.143 15.1507 107.09C15.2381 107.032 15.3279 107.003 15.4201 107.002C15.5098 106.997 15.5949 107.015 15.6756 107.054C15.7563 107.094 15.8217 107.152 15.8719 107.228Z" fill="white"/>
<path d="M10.8713 94.9314C11.0082 95.264 11.0801 95.594 11.0867 95.9212C11.0892 96.2502 11.0318 96.5594 10.9146 96.849C10.7974 97.1385 10.6262 97.3986 10.4011 97.6292C10.1741 97.8556 9.89856 98.0355 9.5743 98.169C9.25005 98.3025 8.92766 98.3687 8.60713 98.3677C8.28487 98.3625 7.9802 98.2983 7.69312 98.1752C7.40431 98.0478 7.14708 97.8656 6.92144 97.6285C6.69159 97.3932 6.50819 97.1092 6.37124 96.7765C6.23949 96.4565 6.17028 96.1328 6.16362 95.8056C6.15275 95.4801 6.21482 95.1763 6.34984 94.8942L6.76894 95.0689C6.6582 95.3262 6.60789 95.5809 6.61803 95.8328C6.62395 96.0864 6.67892 96.3396 6.78294 96.5923C6.89215 96.8576 7.03989 97.0848 7.22615 97.2741C7.40819 97.4651 7.61811 97.6101 7.8559 97.7092C8.08947 97.8101 8.33779 97.863 8.60085 97.8679C8.85797 97.8704 9.11918 97.8171 9.38448 97.7079C9.64977 97.5987 9.87495 97.4518 10.06 97.2673C10.2391 97.0803 10.3782 96.8679 10.4773 96.6301C10.5722 96.394 10.6192 96.1432 10.6182 95.8777C10.613 95.6139 10.5558 95.3493 10.4466 95.084C10.3426 94.8314 10.2034 94.6129 10.029 94.4286C9.85465 94.2443 9.63755 94.0997 9.37772 93.9949L9.55238 93.5758C9.84689 93.6811 10.107 93.8523 10.3326 94.0894C10.5582 94.3264 10.7378 94.6071 10.8713 94.9314Z" fill="white"/>
<path d="M7.7813 85.5329L5.93852 87.9129L5.59709 87.5784L7.6347 84.9711L7.7813 85.5329ZM8.60749 88.6989L3.98076 89.9063L3.85657 89.4304L8.4833 88.223L8.60749 88.6989ZM6.39956 88.9221L5.96994 89.0342L5.5922 87.5867L6.02183 87.4746L6.39956 88.9221ZM5.87095 87.4646L5.90892 87.9347L3.17182 86.8064L3.03384 86.2776L5.87095 87.4646Z" fill="white"/>
<path d="M6.72576 80.1847L1.9813 80.78L1.75847 79.0042C1.70801 78.6021 1.73015 78.2482 1.8249 77.9426C1.91513 77.6375 2.07261 77.3929 2.29733 77.2086C2.51697 77.0204 2.79849 76.9048 3.1419 76.8617C3.47627 76.8197 3.77538 76.8625 4.03923 76.99C4.29799 77.1136 4.51103 77.3118 4.67835 77.5845C4.84568 77.8573 4.95457 78.1947 5.00504 78.5969L5.19299 80.0947L4.9277 79.9008L6.66282 79.6831L6.72576 80.1847ZM4.96837 79.8957L4.75244 80.15L4.56618 78.6657C4.50665 78.1912 4.3599 77.8448 4.12595 77.6263C3.88691 77.4039 3.57988 77.3162 3.20484 77.3632C2.82528 77.4109 2.54717 77.572 2.3705 77.8466C2.19326 78.1167 2.13441 78.4889 2.19395 78.9634L2.38021 80.4477L2.11492 80.2538L4.96837 79.8957Z" fill="white"/>
<path d="M6.05698 70.021C6.05496 70.3807 5.99388 70.7151 5.87375 71.0241C5.74908 71.3285 5.57682 71.594 5.35695 71.8204C5.13256 72.0423 4.87429 72.2162 4.58212 72.3421C4.28543 72.4634 3.96176 72.5231 3.61111 72.5211C3.26046 72.5191 2.93975 72.4559 2.64899 72.3313C2.3537 72.2021 2.09739 72.0253 1.88005 71.801C1.65819 71.572 1.48891 71.3047 1.37222 70.9989C1.25097 70.6931 1.19137 70.358 1.19341 69.9937C1.19543 69.634 1.25877 69.3019 1.38343 68.9974C1.50354 68.693 1.67352 68.4298 1.89336 68.2079C2.11322 67.9814 2.3715 67.8075 2.66819 67.6862C2.96491 67.5604 3.28859 67.4985 3.63924 67.5004C3.98989 67.5024 4.31286 67.568 4.60815 67.6971C4.90346 67.8217 5.15978 67.9985 5.37709 68.2274C5.59442 68.4518 5.76372 68.7169 5.88496 69.0227C6.00165 69.3284 6.05899 69.6612 6.05698 70.021ZM5.60614 70.0184C5.60775 69.7315 5.56141 69.4672 5.46713 69.2253C5.36832 68.9788 5.23062 68.7663 5.05401 68.5877C4.87287 68.4045 4.66419 68.2621 4.42794 68.1606C4.18715 68.0591 3.9233 68.0075 3.63641 68.0059C3.34951 68.0043 3.08738 68.0529 2.85002 68.1518C2.6081 68.2506 2.39783 68.3906 2.21921 68.5718C2.03606 68.7484 1.89598 68.9593 1.79897 69.2047C1.69743 69.4455 1.64586 69.7093 1.64425 69.9962C1.64264 70.2831 1.69124 70.5498 1.79005 70.7963C1.8843 71.0427 2.022 71.2576 2.20313 71.4407C2.37974 71.6193 2.58843 71.7617 2.8292 71.8678C3.06544 71.9693 3.32701 72.0208 3.6139 72.0224C3.89624 72.024 4.15837 71.9754 4.40029 71.8766C4.64224 71.7732 4.85478 71.6332 5.03793 71.4566C5.21656 71.2755 5.35665 71.0622 5.45821 70.8168C5.55522 70.5715 5.60453 70.3053 5.60614 70.0184Z" fill="white"/>
<path d="M6.36492 63.7553C6.35597 63.8184 6.34283 63.8786 6.3255 63.9359C6.31268 63.9939 6.29214 64.0577 6.26387 64.1273L5.82325 64.0234C5.85216 63.9493 5.87172 63.8762 5.88195 63.8041C5.91073 63.6012 5.85484 63.4276 5.71429 63.2835C5.56988 63.1343 5.33532 63.0044 5.01061 62.894C4.6814 62.7829 4.2543 62.6809 3.72932 62.5881L1.70993 62.2327L2.16549 59.0202L6.89979 59.6915L6.82978 60.1852L2.39306 59.5561L2.54655 59.4468L2.18785 61.9762L2.06309 61.8344L3.7791 62.1398C4.24997 62.225 4.65548 62.317 4.99563 62.4158C5.33127 62.514 5.60735 62.6267 5.82388 62.754C6.03589 62.8807 6.18771 63.0264 6.27933 63.1912C6.36644 63.3553 6.39498 63.5433 6.36492 63.7553Z" fill="white"/>
<path d="M7.85855 55.1671C7.84117 55.2284 7.82002 55.2863 7.79512 55.3408C7.7746 55.3965 7.74564 55.4569 7.70825 55.5221L7.28566 55.3597C7.32429 55.2902 7.35354 55.2204 7.37341 55.1503C7.42928 54.9531 7.3973 54.7737 7.27747 54.6119C7.1545 54.4445 6.93959 54.2842 6.63275 54.131C6.32152 53.9766 5.91208 53.8179 5.40441 53.6551L3.45138 53.0307L4.336 49.9089L8.93653 51.2126L8.80058 51.6924L4.48923 50.4706L4.65605 50.383L3.95953 52.841L3.85504 52.6836L5.51418 53.2177C5.96927 53.3656 6.35867 53.5114 6.68239 53.6552C7.00172 53.7977 7.26008 53.9467 7.45746 54.102C7.65046 54.2561 7.78124 54.421 7.8498 54.5966C7.91399 54.771 7.9169 54.9611 7.85855 55.1671Z" fill="white"/>
<path d="M11.5424 41.1912C11.5012 41.2725 11.4418 41.3393 11.3641 41.3918C11.2884 41.4403 11.2058 41.4673 11.1161 41.4729C11.0265 41.4785 10.935 41.4576 10.8416 41.4102C10.7563 41.367 10.6894 41.3075 10.641 41.2319C10.5925 41.1563 10.5655 41.0736 10.5599 40.984C10.5564 40.8903 10.5752 40.8028 10.6164 40.7216C10.6576 40.6403 10.716 40.5755 10.7916 40.5271C10.8673 40.4786 10.9499 40.4516 11.0395 40.446C11.1312 40.4363 11.2197 40.4531 11.305 40.4964C11.3984 40.5438 11.4683 40.6073 11.5147 40.687C11.5632 40.7626 11.5902 40.8453 11.5958 40.9349C11.6014 41.0246 11.5836 41.11 11.5424 41.1912Z" fill="white"/>
<path d="M19.753 30.7609C19.5317 31.0446 19.2805 31.2702 18.9995 31.438C18.7149 31.6029 18.4177 31.7061 18.1081 31.7475C17.7985 31.789 17.4878 31.7689 17.176 31.6874C16.867 31.6022 16.5743 31.4518 16.2978 31.2361C16.0213 31.0203 15.8042 30.773 15.6465 30.4939C15.4916 30.2113 15.3966 29.9148 15.3615 29.6044C15.3293 29.2904 15.3603 28.9767 15.4547 28.6633C15.5454 28.3471 15.7014 28.0472 15.9228 27.7636C16.1357 27.4907 16.3826 27.2704 16.6637 27.1027C16.9412 26.9322 17.2359 26.8358 17.5478 26.8135L17.6035 27.2642C17.325 27.2953 17.0789 27.3776 16.865 27.511C16.6475 27.6417 16.4547 27.8148 16.2866 28.0302C16.1101 28.2564 15.9857 28.4972 15.9134 28.7527C15.8376 29.0054 15.8154 29.2596 15.8469 29.5153C15.8749 29.7682 15.9518 30.0101 16.0777 30.2412C16.2027 30.4658 16.3784 30.6664 16.6046 30.8429C16.8307 31.0194 17.0698 31.1424 17.3217 31.2119C17.5729 31.275 17.8263 31.2908 18.0819 31.2592C18.334 31.2248 18.5752 31.1415 18.8054 31.0093C19.0321 30.8742 19.2337 30.6936 19.4102 30.4674C19.5783 30.252 19.6993 30.0229 19.7731 29.7802C19.847 29.5375 19.8652 29.2773 19.8277 28.9997L20.2783 28.944C20.3325 29.2521 20.3125 29.5628 20.2181 29.8762C20.1238 30.1896 19.9687 30.4845 19.753 30.7609Z" fill="white"/>
<path d="M26.3909 23.425L23.4109 23.0014L23.5326 22.5392L26.8065 23.0196L26.3909 23.425ZM24.0486 25.7096L20.7098 22.2866L21.0619 21.9432L24.4006 25.3662L24.0486 25.7096ZM22.762 23.9015L22.452 23.5836L23.5229 22.5391L23.8329 22.8569L22.762 23.9015ZM23.767 22.7208L23.3772 22.9865L23.0032 20.0497L23.3944 19.6681L23.767 22.7208Z" fill="white"/>
<path d="M30.5159 19.8611L27.6507 16.0329L29.0835 14.9605C29.408 14.7177 29.7265 14.5618 30.039 14.4929C30.3487 14.4203 30.6392 14.4361 30.9105 14.5402C31.1828 14.6379 31.4226 14.8253 31.63 15.1024C31.8319 15.3722 31.9427 15.6533 31.9625 15.9457C31.9831 16.2317 31.9164 16.5149 31.7622 16.7953C31.6079 17.0757 31.3686 17.3373 31.0441 17.5801L29.8355 18.4847L29.8727 18.1582L30.9206 19.5582L30.5159 19.8611ZM29.8973 18.191L29.5695 18.1292L30.7671 17.2328C31.1499 16.9463 31.3784 16.6473 31.4525 16.3359C31.5275 16.0181 31.4517 15.7079 31.2253 15.4053C30.996 15.0991 30.7184 14.9371 30.3924 14.9195C30.07 14.8991 29.7174 15.0322 29.3345 15.3187L28.1369 16.2151L28.1741 15.8886L29.8973 18.191Z" fill="white"/>
<path d="M39.0169 14.2504C38.7033 14.4266 38.3825 14.539 38.0546 14.5876C37.7283 14.6299 37.4124 14.6115 37.1068 14.5326C36.803 14.4474 36.5241 14.309 36.2701 14.1174C36.0179 13.9196 35.8058 13.6679 35.634 13.3622C35.4622 13.0565 35.3585 12.7465 35.3229 12.4322C35.289 12.1117 35.3158 11.8015 35.4032 11.5016C35.4923 11.1955 35.6409 10.9161 35.8489 10.6634C36.0546 10.4067 36.3163 10.1891 36.6338 10.0106C36.9475 9.8343 37.2674 9.725 37.5936 9.68269C37.9176 9.6364 38.2304 9.65386 38.532 9.73508C38.8376 9.81406 39.1165 9.95245 39.3688 10.1502C39.625 10.3458 39.839 10.5964 40.0108 10.9021C40.1826 11.2078 40.2854 11.5209 40.3193 11.8414C40.3572 12.1597 40.3304 12.4699 40.239 12.772C40.1516 13.0719 40.005 13.3502 39.7993 13.6069C39.5913 13.8596 39.3306 14.0741 39.0169 14.2504ZM38.796 13.8574C39.0461 13.7168 39.253 13.5457 39.4165 13.344C39.5818 13.1362 39.6983 12.9114 39.7661 12.6695C39.8357 12.4215 39.8561 12.1697 39.8274 11.9142C39.7965 11.6547 39.7107 11.3999 39.5701 11.1498C39.4296 10.8997 39.2576 10.696 39.0542 10.5386C38.8486 10.3773 38.6229 10.2639 38.3771 10.1983C38.133 10.1265 37.8804 10.1092 37.6191 10.1463C37.3596 10.1773 37.1048 10.263 36.8547 10.4036C36.6046 10.5442 36.397 10.7184 36.2317 10.9262C36.0642 11.1301 35.9456 11.356 35.8761 11.6041C35.8083 11.8459 35.7879 12.0977 35.8148 12.3594C35.8435 12.6149 35.9282 12.8677 36.0687 13.1178C36.2071 13.364 36.379 13.5677 36.5846 13.729C36.7942 13.8881 37.021 14.0035 37.2651 14.0753C37.5109 14.1409 37.7656 14.1571 38.029 14.1239C38.2903 14.0868 38.5459 13.9979 38.796 13.8574Z" fill="white"/>
<path d="M44.6141 11.4174C44.5548 11.4409 44.496 11.4593 44.4376 11.4726C44.3809 11.4901 44.3153 11.5038 44.2408 11.5137L44.113 11.0794C44.1917 11.0679 44.265 11.0487 44.3327 11.0219C44.5233 10.9465 44.6464 10.812 44.7021 10.6186C44.7603 10.4192 44.7571 10.1511 44.6924 9.81433C44.626 9.47328 44.5032 9.05169 44.3241 8.54956L43.6336 6.6189L46.6506 5.42501L48.4101 9.87122L47.9464 10.0547L46.2976 5.88797L46.4685 5.96724L44.093 6.90728L44.1545 6.72865L44.7383 8.37096C44.8973 8.82229 45.018 9.22019 45.1005 9.56468C45.1812 9.90493 45.2199 10.2006 45.2164 10.4518C45.2113 10.6987 45.1598 10.9027 45.0619 11.0639C44.9624 11.2208 44.8131 11.3386 44.6141 11.4174Z" fill="white"/>
<path d="M52.8161 8.46523C52.7542 8.48048 52.6934 8.49076 52.6337 8.49608C52.5752 8.50582 52.5083 8.51056 52.4332 8.5103L52.3652 8.06274C52.4447 8.06191 52.5198 8.05278 52.5906 8.03535C52.7896 7.98633 52.9297 7.86973 53.011 7.68556C53.0955 7.49588 53.1285 7.2298 53.1098 6.88734C53.09 6.54046 53.0252 6.10617 52.9155 5.58446L52.4916 3.57833L55.6421 2.80219L56.7859 7.44505L56.3017 7.56433L55.2298 3.21331L55.3885 3.31492L52.9079 3.92602L52.993 3.75732L53.3499 5.46336C53.4466 5.932 53.5126 6.34255 53.5478 6.69501C53.582 7.04304 53.5804 7.34126 53.5431 7.58964C53.5047 7.83361 53.4262 8.02883 53.3075 8.17532C53.1877 8.31739 53.0239 8.41403 52.8161 8.46523Z" fill="white"/>
<path d="M66.7839 4.75027C66.693 4.75467 66.6054 4.7361 66.5214 4.69458C66.4418 4.65283 66.3775 4.59439 66.3282 4.51926C66.279 4.44413 66.2519 4.35426 66.2468 4.24964C66.2422 4.15412 66.2608 4.0666 66.3025 3.98707C66.3443 3.90754 66.4027 3.84317 66.4778 3.79394C66.5575 3.7445 66.6428 3.71758 66.7338 3.71318C66.8248 3.70878 66.91 3.72745 66.9895 3.7692C67.0691 3.81095 67.1334 3.86939 67.1827 3.94452C67.2364 4.01942 67.2656 4.10464 67.2703 4.20016C67.2753 4.30478 67.2547 4.39696 67.2084 4.47671C67.1667 4.55624 67.1082 4.62061 67.0331 4.66984C66.958 4.71906 66.8749 4.74587 66.7839 4.75027Z" fill="white"/>
<path d="M79.9106 6.72358C79.5546 6.67162 79.2342 6.56503 78.9494 6.4038C78.6652 6.23807 78.4285 6.03094 78.2393 5.78242C78.05 5.53389 77.9137 5.25397 77.8303 4.94265C77.7514 4.63199 77.7372 4.30316 77.7879 3.95618C77.8385 3.60921 77.946 3.29814 78.1105 3.02299C78.2794 2.7485 78.49 2.51922 78.7424 2.33515C78.9993 2.15173 79.2872 2.02348 79.6062 1.95038C79.9259 1.87278 80.2638 1.85995 80.6197 1.91191C80.9622 1.96189 81.2759 2.0675 81.5607 2.22873C81.8462 2.38545 82.0758 2.59384 82.2495 2.85391L81.8855 3.12523C81.7206 2.89868 81.5273 2.72549 81.3055 2.60568C81.0843 2.48135 80.8385 2.39946 80.5682 2.36C80.2843 2.31857 80.0134 2.32966 79.7556 2.39328C79.4985 2.4524 79.2666 2.55893 79.06 2.71287C78.8542 2.86231 78.682 3.04888 78.5435 3.27258C78.4101 3.49243 78.3227 3.74431 78.2813 4.0282C78.2399 4.31209 78.2513 4.58069 78.3156 4.83399C78.385 5.08344 78.4967 5.31144 78.6506 5.518C78.8052 5.72005 78.997 5.8884 79.2258 6.02305C79.4554 6.1532 79.7121 6.23899 79.996 6.28042C80.2663 6.31988 80.5253 6.31165 80.7727 6.25572C81.0202 6.1998 81.2553 6.08684 81.478 5.91684L81.7493 6.2809C81.5085 6.48046 81.2286 6.61679 80.9096 6.68989C80.5906 6.76299 80.2576 6.77422 79.9106 6.72358Z" fill="white"/>
<path d="M89.5702 8.86143L88.4636 6.06225L88.9255 5.93926L90.1282 9.02199L89.5702 8.86143ZM86.4258 7.95659L87.7481 3.36139L88.2207 3.4974L86.8984 8.0926L86.4258 7.95659ZM87.3604 5.94381L87.4831 5.51712L88.9208 5.93081L88.798 6.35751L87.3604 5.94381ZM88.8836 6.23287L88.4599 6.02565L90.8269 4.24734L91.352 4.39846L88.8836 6.23287Z" fill="white"/>
<path d="M94.7084 10.6823L96.6171 6.29811L98.258 7.01252C98.6296 7.17431 98.9227 7.37392 99.1372 7.61135C99.3535 7.8446 99.4836 8.10487 99.5274 8.39215C99.5772 8.67707 99.533 8.9782 99.3949 9.29553C99.2603 9.60451 99.0709 9.83992 98.8266 10.0018C98.5883 10.1613 98.3092 10.2434 97.9892 10.2481C97.6693 10.2529 97.3235 10.1743 96.9519 10.0126L95.5678 9.40994L95.8699 9.28071L95.1718 10.8841L94.7084 10.6823ZM95.8535 9.31829L95.745 9.00283L97.1166 9.6C97.555 9.79087 97.9279 9.84144 98.2352 9.75172C98.5484 9.65963 98.7805 9.44031 98.9314 9.09375C99.0841 8.74301 99.0874 8.42162 98.9414 8.12957C98.7995 7.83934 98.5094 7.59878 98.071 7.40791L96.6994 6.81074L97.0015 6.68152L95.8535 9.31829Z" fill="white"/>
<path d="M103.791 15.293C103.482 15.1077 103.226 14.8846 103.021 14.6236C102.823 14.3611 102.683 14.0775 102.6 13.7728C102.524 13.4666 102.506 13.1558 102.547 12.8403C102.594 12.5232 102.708 12.2144 102.888 11.9138C103.069 11.6133 103.287 11.3697 103.543 11.1832C103.804 10.9952 104.087 10.8649 104.391 10.7925C104.701 10.7185 105.017 10.7093 105.34 10.765C105.665 10.8167 105.983 10.9364 106.296 11.1241C106.604 11.3094 106.857 11.5333 107.056 11.7958C107.256 12.0545 107.396 12.3349 107.474 12.6372C107.557 12.9419 107.575 13.2527 107.528 13.5698C107.485 13.8892 107.373 14.1992 107.192 14.4997C107.011 14.8003 106.79 15.0446 106.529 15.2327C106.271 15.4231 105.988 15.5533 105.68 15.6234C105.376 15.6958 105.062 15.7062 104.737 15.6544C104.415 15.5988 104.099 15.4783 103.791 15.293ZM104.023 14.9066C104.269 15.0543 104.52 15.1494 104.776 15.1917C105.038 15.2325 105.291 15.2225 105.535 15.1617C105.785 15.0994 106.014 14.9926 106.222 14.8412C106.432 14.6859 106.611 14.4853 106.759 14.2394C106.907 13.9935 106.998 13.7432 107.035 13.4886C107.073 13.2301 107.06 12.9779 106.995 12.7318C106.937 12.4842 106.827 12.2561 106.665 12.0474C106.51 11.8373 106.309 11.6583 106.063 11.5105C105.818 11.3627 105.563 11.2685 105.301 11.2277C105.041 11.183 104.786 11.1918 104.536 11.2542C104.292 11.3149 104.063 11.4218 103.849 11.5747C103.641 11.7261 103.464 11.9247 103.316 12.1707C103.17 12.4127 103.079 12.6629 103.04 12.9214C103.006 13.1823 103.018 13.4365 103.076 13.6841C103.141 13.9301 103.253 14.1594 103.412 14.372C103.573 14.5806 103.777 14.7588 104.023 14.9066Z" fill="white"/>
<path d="M109.022 18.7548C108.973 18.7149 108.928 18.6729 108.887 18.6287C108.844 18.5881 108.799 18.5379 108.754 18.4781L109.068 18.1522C109.117 18.2148 109.17 18.269 109.227 18.3146C109.387 18.4428 109.564 18.4833 109.76 18.436C109.962 18.3879 110.193 18.2524 110.454 18.0295C110.718 17.8031 111.023 17.4878 111.371 17.0836L112.707 15.5282L115.237 17.5591L112.244 21.2883L111.856 20.9762L114.66 17.4814L114.676 17.6692L112.684 16.0701L112.869 16.0352L111.731 17.3552C111.418 17.7167 111.132 18.0185 110.873 18.2606C110.617 18.4992 110.379 18.6791 110.16 18.8004C109.942 18.9181 109.74 18.9743 109.551 18.969C109.366 18.9602 109.189 18.8888 109.022 18.7548Z" fill="white"/>
<path d="M115.646 24.4212C115.603 24.375 115.564 24.3272 115.529 24.278C115.492 24.232 115.455 24.1762 115.418 24.1108L115.773 23.8302C115.813 23.8989 115.858 23.9597 115.908 24.0125C116.049 24.1612 116.22 24.2253 116.42 24.2047C116.627 24.1844 116.875 24.0813 117.163 23.8956C117.455 23.7067 117.8 23.4355 118.199 23.082L119.732 21.7209L121.966 24.0745L118.497 27.366L118.154 27.0043L121.405 23.9197L121.395 24.1079L119.636 22.2547L119.825 22.2452L118.519 23.3996C118.16 23.7156 117.836 23.976 117.547 24.1811C117.261 24.383 117.001 24.5292 116.767 24.6197C116.536 24.707 116.328 24.7354 116.142 24.7048C115.959 24.671 115.794 24.5765 115.646 24.4212Z" fill="white"/>
<path d="M125.787 34.7206C125.738 34.6438 125.711 34.5585 125.705 34.4649C125.702 34.3752 125.721 34.2903 125.762 34.2103C125.803 34.1304 125.868 34.0623 125.956 34.0062C126.037 33.9549 126.122 33.9277 126.212 33.9246C126.301 33.9215 126.386 33.9405 126.466 33.9814C126.549 34.0262 126.614 34.087 126.663 34.1639C126.712 34.2407 126.738 34.3241 126.741 34.4138C126.744 34.5036 126.725 34.5885 126.684 34.6684C126.646 34.7522 126.586 34.8197 126.505 34.871C126.417 34.9272 126.327 34.9549 126.234 34.9541C126.145 34.9572 126.06 34.9383 125.98 34.8974C125.9 34.8564 125.836 34.7975 125.787 34.7206Z" fill="white"/>
<path d="M130.568 47.1038C130.437 46.7687 130.371 46.4376 130.37 46.1103C130.373 45.7813 130.436 45.4732 130.559 45.1857C130.681 44.8983 130.857 44.6413 131.086 44.4148C131.317 44.1925 131.596 44.0174 131.922 43.8897C132.249 43.762 132.572 43.7016 132.893 43.7083C133.215 43.7192 133.518 43.7888 133.803 43.917C134.09 44.0495 134.344 44.2362 134.565 44.4773C134.791 44.7167 134.969 45.0039 135.1 45.3389C135.226 45.6613 135.289 45.9861 135.29 46.3134C135.295 46.639 135.228 46.9417 135.088 47.2213L134.672 47.0392C134.787 46.7839 134.842 46.5302 134.836 46.2781C134.835 46.0244 134.785 45.7703 134.685 45.5159C134.581 45.2487 134.437 45.0188 134.254 44.8262C134.075 44.632 133.868 44.4833 133.632 44.38C133.4 44.275 133.153 44.2177 132.89 44.208C132.633 44.201 132.371 44.2497 132.104 44.3542C131.837 44.4586 131.609 44.6015 131.42 44.7827C131.238 44.9665 131.095 45.1764 130.992 45.4124C130.893 45.6467 130.841 45.8966 130.838 46.1621C130.838 46.426 130.891 46.6915 130.995 46.9587C131.095 47.2132 131.23 47.4341 131.401 47.6215C131.572 47.8089 131.787 47.9572 132.044 48.0666L131.862 48.4826C131.57 48.3721 131.313 48.1963 131.091 47.9552C130.87 47.7142 130.695 47.4304 130.568 47.1038Z" fill="white"/>
<path d="M133.49 56.5556L135.375 54.2088L135.71 54.5493L133.627 57.1199L133.49 56.5556ZM132.72 53.3754L137.368 52.2505L137.484 52.7285L132.836 53.8534L132.72 53.3754ZM134.932 53.1915L135.363 53.0871L135.715 54.541L135.284 54.6455L134.932 53.1915ZM135.435 54.6582L135.405 54.1875L138.122 55.3643L138.25 55.8954L135.435 54.6582Z" fill="white"/>
<path d="M134.451 61.9217L139.205 61.4108L139.396 63.1903C139.439 63.5933 139.411 63.9467 139.311 64.2506C139.215 64.554 139.053 64.7958 138.825 64.9761C138.602 65.1603 138.319 65.271 137.975 65.3079C137.64 65.3439 137.341 65.2958 137.08 65.1636C136.823 65.0355 136.614 64.8336 136.451 64.5579C136.289 64.2822 136.186 63.9429 136.143 63.5399L135.981 62.0389L136.243 62.2375L134.505 62.4243L134.451 61.9217ZM136.203 62.2419L136.423 61.9915L136.583 63.4789C136.634 63.9543 136.774 64.3033 137.004 64.5259C137.24 64.7526 137.545 64.8457 137.921 64.8053C138.301 64.7645 138.582 64.6083 138.764 64.3369C138.946 64.07 139.011 63.6989 138.96 63.2234L138.8 61.736L139.062 61.9346L136.203 62.2419Z" fill="white"/>
<path d="M134.939 72.0958C134.947 71.7361 135.014 71.4029 135.14 71.096C135.27 70.7939 135.447 70.5315 135.67 70.309C135.899 70.0912 136.16 69.9219 136.454 69.8012C136.753 69.6852 137.078 69.6313 137.428 69.6395C137.779 69.6477 138.099 69.7167 138.387 69.8464C138.68 69.9808 138.933 70.1621 139.146 70.3903C139.364 70.6232 139.529 70.8935 139.64 71.2013C139.756 71.5092 139.809 71.8453 139.801 72.2095C139.792 72.5691 139.723 72.9001 139.593 73.2022C139.468 73.5045 139.293 73.7646 139.069 73.9826C138.845 74.2051 138.584 74.3744 138.285 74.4904C137.986 74.6109 137.662 74.6671 137.311 74.6589C136.961 74.6507 136.639 74.5794 136.346 74.445C136.053 74.3152 135.8 74.1339 135.586 73.9011C135.373 73.6729 135.209 73.4049 135.093 73.097C134.982 72.7892 134.93 72.4554 134.939 72.0958ZM135.389 72.1063C135.383 72.3931 135.424 72.6583 135.514 72.9018C135.609 73.15 135.742 73.365 135.916 73.5467C136.094 73.7331 136.3 73.8791 136.534 73.9848C136.773 74.0906 137.036 74.1468 137.323 74.1535C137.61 74.1603 137.873 74.1163 138.112 74.0217C138.355 73.9272 138.568 73.7909 138.75 73.613C138.936 73.4397 139.08 73.2312 139.181 72.9876C139.287 72.7486 139.343 72.4858 139.35 72.1989C139.357 71.9121 139.313 71.6446 139.219 71.3964C139.129 71.1483 138.995 70.9311 138.817 70.7447C138.644 70.563 138.438 70.417 138.199 70.3066C137.964 70.201 137.704 70.1447 137.417 70.138C137.135 70.1314 136.872 70.1754 136.628 70.2699C136.384 70.369 136.169 70.5052 135.983 70.6785C135.801 70.8564 135.657 71.0672 135.551 71.3107C135.45 71.5543 135.396 71.8195 135.389 72.1063Z" fill="white"/>
<path d="M134.519 78.3551C134.529 78.2921 134.543 78.2321 134.562 78.1751C134.576 78.1174 134.597 78.054 134.627 77.9849L135.066 78.0966C135.035 78.1702 135.014 78.2429 135.003 78.3149C134.971 78.5172 135.023 78.6917 135.161 78.8383C135.303 78.9901 135.535 79.1241 135.858 79.2403C136.185 79.3572 136.61 79.4667 137.134 79.5689L139.146 79.9601L138.634 83.1641L133.912 82.4086L133.991 81.9162L138.416 82.6242L138.26 82.7307L138.664 80.2081L138.786 80.3521L137.076 80.0162C136.607 79.9227 136.203 79.8235 135.864 79.7187C135.531 79.6145 135.257 79.4969 135.042 79.3658C134.833 79.2354 134.683 79.087 134.595 78.9206C134.511 78.7549 134.485 78.5664 134.519 78.3551Z" fill="white"/>
<path d="M132.873 86.9152C132.892 86.8542 132.914 86.7967 132.94 86.7426C132.961 86.6873 132.991 86.6274 133.03 86.5629L133.45 86.7328C133.41 86.8016 133.379 86.8709 133.358 86.9406C133.299 87.1367 133.327 87.3167 133.444 87.4806C133.564 87.6501 133.776 87.8142 134.081 87.9729C134.389 88.1328 134.795 88.2987 135.3 88.4705L137.242 89.1296L136.302 92.2351L131.725 90.8499L131.87 90.3726L136.159 91.6708L135.99 91.7554L136.73 89.3102L136.832 89.4694L135.183 88.906C134.73 88.75 134.344 88.5973 134.022 88.4477C133.706 88.2995 133.45 88.146 133.255 87.9872C133.065 87.8297 132.937 87.6626 132.872 87.4857C132.811 87.3102 132.811 87.1201 132.873 86.9152Z" fill="white"/>
<path d="M128.941 100.824C128.984 100.743 129.045 100.677 129.123 100.626C129.2 100.579 129.283 100.554 129.373 100.55C129.462 100.546 129.554 100.568 129.646 100.617C129.731 100.662 129.796 100.722 129.843 100.799C129.891 100.875 129.916 100.959 129.92 101.048C129.922 101.142 129.902 101.229 129.859 101.31C129.816 101.39 129.757 101.454 129.68 101.501C129.604 101.548 129.521 101.574 129.431 101.578C129.339 101.586 129.251 101.567 129.166 101.522C129.074 101.473 129.005 101.409 128.96 101.328C128.913 101.252 128.888 101.169 128.884 101.079C128.88 100.989 128.899 100.904 128.941 100.824Z" fill="white"/>
<path d="M120.547 111.106C120.773 110.827 121.028 110.605 121.312 110.443C121.6 110.283 121.899 110.185 122.209 110.149C122.519 110.113 122.83 110.139 123.14 110.226C123.447 110.316 123.737 110.472 124.01 110.693C124.282 110.913 124.495 111.164 124.648 111.446C124.798 111.731 124.888 112.03 124.917 112.341C124.944 112.655 124.907 112.968 124.807 113.28C124.711 113.594 124.549 113.891 124.323 114.171C124.105 114.44 123.855 114.656 123.571 114.819C123.29 114.984 122.994 115.075 122.681 115.092L122.634 114.641C122.913 114.614 123.16 114.537 123.377 114.407C123.596 114.28 123.792 114.111 123.964 113.898C124.145 113.675 124.273 113.437 124.35 113.182C124.43 112.931 124.457 112.677 124.43 112.421C124.407 112.168 124.334 111.924 124.212 111.691C124.091 111.464 123.919 111.261 123.696 111.08C123.473 110.9 123.236 110.772 122.986 110.699C122.736 110.631 122.483 110.611 122.226 110.638C121.974 110.668 121.731 110.747 121.499 110.875C121.27 111.006 121.065 111.183 120.884 111.406C120.712 111.618 120.587 111.845 120.509 112.086C120.431 112.328 120.408 112.588 120.441 112.866L119.989 112.913C119.941 112.604 119.966 112.294 120.066 111.983C120.166 111.671 120.326 111.379 120.547 111.106Z" fill="white"/>
<path d="M113.78 118.323L116.752 118.799L116.622 119.259L113.357 118.721L113.78 118.323ZM116.162 116.08L119.439 119.562L119.081 119.899L115.804 116.417L116.162 116.08ZM117.416 117.911L117.721 118.234L116.631 119.26L116.327 118.936L117.416 117.911ZM116.39 119.074L116.785 118.815L117.107 121.758L116.709 122.133L116.39 119.074Z" fill="white"/>
<path d="M109.592 121.813L112.389 125.692L110.937 126.738C110.608 126.975 110.287 127.126 109.973 127.189C109.662 127.256 109.372 127.235 109.103 127.126C108.832 127.024 108.596 126.832 108.393 126.551C108.196 126.278 108.09 125.995 108.076 125.702C108.06 125.416 108.132 125.134 108.291 124.856C108.45 124.579 108.694 124.321 109.023 124.084L110.248 123.201L110.205 123.527L109.182 122.109L109.592 121.813ZM110.181 123.494L110.507 123.561L109.294 124.436C108.906 124.716 108.672 125.011 108.593 125.321C108.512 125.637 108.582 125.949 108.803 126.255C109.027 126.566 109.302 126.733 109.627 126.756C109.949 126.782 110.304 126.655 110.692 126.376L111.906 125.501L111.863 125.826L110.181 123.494Z" fill="white"/>
<path d="M100.992 127.272C101.309 127.101 101.632 126.994 101.961 126.952C102.287 126.915 102.603 126.939 102.907 127.024C103.209 127.114 103.486 127.257 103.736 127.454C103.985 127.656 104.193 127.911 104.359 128.22C104.525 128.529 104.623 128.84 104.653 129.155C104.682 129.476 104.649 129.786 104.557 130.084C104.462 130.389 104.309 130.666 104.096 130.915C103.886 131.168 103.62 131.38 103.3 131.553C102.983 131.724 102.661 131.828 102.334 131.864C102.009 131.905 101.697 131.882 101.397 131.795C101.093 131.711 100.816 131.567 100.568 131.365C100.315 131.165 100.105 130.911 99.9391 130.602C99.7728 130.293 99.6755 129.978 99.6473 129.657C99.6151 129.338 99.6474 129.029 99.7441 128.728C99.8369 128.43 99.9884 128.154 100.199 127.901C100.411 127.652 100.676 127.442 100.992 127.272ZM101.206 127.669C100.954 127.805 100.744 127.972 100.577 128.171C100.408 128.376 100.287 128.598 100.215 128.839C100.141 129.086 100.116 129.337 100.14 129.593C100.167 129.853 100.248 130.109 100.384 130.362C100.52 130.615 100.689 130.821 100.889 130.982C101.092 131.147 101.315 131.265 101.56 131.335C101.803 131.411 102.055 131.432 102.317 131.4C102.577 131.374 102.833 131.292 103.086 131.156C103.338 131.02 103.549 130.85 103.718 130.645C103.889 130.444 104.012 130.22 104.086 129.973C104.158 129.733 104.183 129.482 104.16 129.219C104.136 128.963 104.056 128.709 103.92 128.457C103.786 128.208 103.618 128.001 103.415 127.836C103.208 127.674 102.984 127.554 102.741 127.478C102.496 127.408 102.242 127.387 101.978 127.416C101.716 127.448 101.459 127.533 101.206 127.669Z" fill="white"/>
<path d="M95.3457 130.005C95.4053 129.982 95.4645 129.965 95.5231 129.953C95.5802 129.936 95.646 129.924 95.7206 129.915L95.8406 130.352C95.7618 130.362 95.6882 130.38 95.62 130.405C95.4281 130.477 95.3026 130.61 95.2435 130.802C95.1817 131 95.1802 131.268 95.2389 131.606C95.2992 131.948 95.4145 132.372 95.5846 132.877L96.2407 134.82L93.2029 135.96L91.5228 131.483L91.9897 131.308L93.5642 135.503L93.3947 135.421L95.7865 134.524L95.7218 134.701L95.1673 133.049C95.0164 132.595 94.9028 132.195 94.8264 131.849C94.7517 131.507 94.7184 131.211 94.7263 130.96C94.7358 130.713 94.7909 130.51 94.8916 130.35C94.9939 130.195 95.1453 130.08 95.3457 130.005Z" fill="white"/>
<path d="M87.0926 132.811C87.1548 132.796 87.2158 132.787 87.2755 132.783C87.3342 132.774 87.4011 132.771 87.4762 132.772L87.5363 133.221C87.4568 133.22 87.3815 133.228 87.3104 133.244C87.1106 133.29 86.9685 133.404 86.8839 133.587C86.796 133.775 86.7583 134.04 86.7709 134.383C86.7845 134.73 86.8416 135.166 86.9421 135.689L87.3302 137.702L84.1664 138.422L83.1053 133.76L83.5916 133.649L84.5859 138.019L84.4291 137.914L86.9201 137.347L86.8321 137.515L86.5055 135.802C86.4172 135.332 86.3585 134.921 86.3295 134.567C86.3016 134.219 86.3085 133.921 86.3502 133.673C86.3929 133.43 86.4749 133.236 86.5962 133.092C86.7184 132.952 86.8839 132.858 87.0926 132.811Z" fill="white"/>
<path d="M73.0609 136.277C73.1519 136.274 73.2391 136.294 73.3224 136.337C73.4012 136.38 73.4645 136.44 73.5124 136.516C73.5603 136.592 73.5858 136.682 73.589 136.787C73.5919 136.882 73.5718 136.97 73.5286 137.048C73.4855 137.127 73.4259 137.19 73.3499 137.238C73.2694 137.286 73.1836 137.312 73.0926 137.314C73.0015 137.317 72.9166 137.297 72.8378 137.254C72.7591 137.211 72.6957 137.151 72.6479 137.075C72.5954 136.999 72.5677 136.914 72.5648 136.818C72.5616 136.713 72.5839 136.622 72.6316 136.543C72.6747 136.464 72.7343 136.401 72.8103 136.353C72.8863 136.305 72.9698 136.279 73.0609 136.277Z" fill="white"/>
</svg>
