<svg width="30" height="30" viewBox="0 0 30 30" fill="none" xmlns="http://www.w3.org/2000/svg">
<g clip-path="url(#clip0_536_860)">
<path d="M1.46463 29.9997C1.17487 29.9998 0.891605 29.9139 0.650663 29.7529C0.40972 29.592 0.221925 29.3632 0.111032 29.0955C0.000139209 28.8278 -0.02887 28.5332 0.0276739 28.249C0.0842178 27.9648 0.223775 27.7038 0.428692 27.4989L27.499 0.428611C27.7738 0.153863 28.1464 -0.000488281 28.5349 -0.000488281C28.9235 -0.000488281 29.2961 0.153863 29.5709 0.428611C29.8456 0.703359 30 1.076 30 1.46455C30 1.8531 29.8456 2.22574 29.5709 2.50049L2.50057 29.5708C2.36465 29.707 2.20317 29.815 2.02539 29.8886C1.84761 29.9622 1.65704 30 1.46463 29.9997Z" fill="#001645"/>
<path d="M28.5351 29.9997C28.3427 30 28.1521 29.9622 27.9743 29.8886C27.7966 29.815 27.6351 29.707 27.4992 29.5708L0.428855 2.50049C0.154108 2.22574 -0.000244141 1.8531 -0.000244141 1.46455C-0.000244141 1.076 0.154108 0.703359 0.428855 0.428611C0.703603 0.153863 1.07624 -0.000488281 1.46479 -0.000488281C1.85334 -0.000488281 2.22598 0.153863 2.50073 0.428611L29.571 27.4989C29.776 27.7038 29.9155 27.9648 29.9721 28.249C30.0286 28.5332 29.9996 28.8278 29.8887 29.0955C29.7778 29.3632 29.59 29.592 29.3491 29.7529C29.1081 29.9139 28.8249 29.9998 28.5351 29.9997Z" fill="#001645"/>
</g>
<defs>
<clipPath id="clip0_536_860">
<rect width="30" height="30" fill="white"/>
</clipPath>
</defs>
</svg>
