<svg width="36" height="36" viewBox="0 0 36 36" fill="none" xmlns="http://www.w3.org/2000/svg">
<path d="M25.5 2H10.5C5.80558 2 2 5.80558 2 10.5V25.5C2 30.1944 5.80558 34 10.5 34H25.5C30.1944 34 34 30.1944 34 25.5V10.5C34 5.80558 30.1944 2 25.5 2Z" stroke="url(#paint0_linear_1614_72)" stroke-width="2" stroke-linecap="round" stroke-linejoin="round"/>
<path d="M24.2778 21.1595C24.9559 19.8526 25.2047 18.3652 24.9887 16.9088C24.7684 15.4232 24.0762 14.0478 23.0142 12.9858C21.9522 11.9238 20.5769 11.2316 19.0912 11.0113C17.6348 10.7953 16.1474 11.0441 14.8405 11.7222C13.5336 12.4003 12.4738 13.4733 11.8118 14.7884C11.1499 16.1036 10.9194 17.594 11.1534 19.0476C11.3873 20.5013 12.0736 21.8442 13.1147 22.8853C14.1558 23.9264 15.4987 24.6127 16.9524 24.8467C18.406 25.0806 19.8964 24.8502 21.2116 24.1882C22.5268 23.5262 23.5997 22.4664 24.2778 21.1595Z" stroke="url(#paint1_linear_1614_72)" stroke-width="2" stroke-linecap="round" stroke-linejoin="round"/>
<path d="M26.25 9.75H26.2642" stroke="url(#paint2_linear_1614_72)" stroke-width="2" stroke-linecap="round" stroke-linejoin="round"/>
<defs>
<linearGradient id="paint0_linear_1614_72" x1="3" y1="16.5495" x2="43.2688" y2="16.6374" gradientUnits="userSpaceOnUse">
<stop stop-color="#105BFB"/>
<stop offset="1" stop-color="#5061FF"/>
</linearGradient>
<linearGradient id="paint1_linear_1614_72" x1="12.0645" y1="17.3553" x2="28.172" y2="17.3905" gradientUnits="userSpaceOnUse">
<stop stop-color="#105BFB"/>
<stop offset="1" stop-color="#5061FF"/>
</linearGradient>
<linearGradient id="paint2_linear_1614_72" x1="26.25" y1="10.2016" x2="26.269" y2="10.2016" gradientUnits="userSpaceOnUse">
<stop stop-color="#105BFB"/>
<stop offset="1" stop-color="#5061FF"/>
</linearGradient>
</defs>
</svg>
