<svg width="30" height="31" viewBox="0 0 30 31" fill="none" xmlns="http://www.w3.org/2000/svg">
<path d="M29.663 5.52742L15.163 0.527421C15.0574 0.490982 14.9426 0.490982 14.837 0.527421L0.337 5.52742C0.238649 5.56133 0.153325 5.62507 0.092918 5.70976C0.0325106 5.79446 2.92009e-05 5.89589 0 5.99992L0 29.9999C0 30.1325 0.0526784 30.2597 0.146447 30.3535C0.240215 30.4472 0.367392 30.4999 0.5 30.4999H3C3.13261 30.4999 3.25978 30.4472 3.35355 30.3535C3.44732 30.2597 3.5 30.1325 3.5 29.9999V14.4999H26.5V29.9999C26.5 30.1325 26.5527 30.2597 26.6464 30.3535C26.7402 30.4472 26.8674 30.4999 27 30.4999H29.5C29.6326 30.4999 29.7598 30.4472 29.8535 30.3535C29.9473 30.2597 30 30.1325 30 29.9999V5.99992C30 5.89589 29.9675 5.79446 29.9071 5.70976C29.8467 5.62507 29.7613 5.56133 29.663 5.52742ZM2.5 13.9999V29.4999H1V10.4999H2.5V13.9999ZM26.5 13.4999H3.5V12.4999H26.5V13.4999ZM26.5 11.4999H3.5V10.4999H26.5V11.4999ZM29 29.4999H27.5V10.4999H29V29.4999ZM29 9.49992H1V6.35642L15 1.52892L29 6.35642V9.49992Z" fill="#F1F6FF"/>
<path d="M24.7235 22.0499L22.8735 21.1249L21.2235 17.8249C21.0991 17.576 20.9075 17.3668 20.6705 17.221C20.4334 17.0752 20.1603 16.9986 19.882 16.9999H10.118C9.83928 16.999 9.56587 17.0762 9.32877 17.2227C9.09167 17.3692 8.90035 17.5792 8.7765 17.8289L7.1265 21.1289L5.2765 22.0539C5.19361 22.0953 5.12386 22.159 5.07504 22.2377C5.02621 22.3165 5.00023 22.4072 5 22.4999V29.4999C5 30.0522 5.44769 30.4999 6 30.4999H8C8.55231 30.4999 9 30.0522 9 29.4999V27.9999H21V29.4999C21 30.0522 21.4477 30.4999 22 30.4999H24C24.5523 30.4999 25 30.0522 25 29.4999V22.4999C25.0005 22.4066 24.9749 22.3149 24.926 22.2354C24.8772 22.1559 24.807 22.0916 24.7235 22.0499ZM9.671 18.2764C9.7122 18.1931 9.77593 18.1231 9.85494 18.0742C9.93396 18.0253 10.0251 17.9996 10.118 17.9999H19.882C19.9749 17.9996 20.066 18.0253 20.145 18.0742C20.2241 18.1231 20.2878 18.1931 20.329 18.2764L21.691 20.9999H8.309L9.671 18.2764ZM8 29.4999H6V27.9999H8V29.4999ZM24 29.4999H22V27.9999H24V29.4999ZM24 26.9999H6V22.8089L7.618 21.9999H22.382L24 22.8089V26.9999Z" fill="#F1F6FF"/>
<path d="M9.5 22.9999H8C7.44769 22.9999 7 23.4476 7 23.9999V24.9999C7 25.5522 7.44769 25.9999 8 25.9999H9.5C10.0523 25.9999 10.5 25.5522 10.5 24.9999V23.9999C10.5 23.4476 10.0523 22.9999 9.5 22.9999ZM9.5 24.9999H8V23.9999H9.5V24.9999ZM22 22.9999H20.5C19.9477 22.9999 19.5 23.4476 19.5 23.9999V24.9999C19.5 25.5522 19.9477 25.9999 20.5 25.9999H22C22.5523 25.9999 23 25.5522 23 24.9999V23.9999C23 23.4476 22.5523 22.9999 22 22.9999ZM22 24.9999H20.5V23.9999H22V24.9999ZM17.5 22.9999H12.5C11.9477 22.9999 11.5 23.4476 11.5 23.9999V24.9999C11.5 25.5522 11.9477 25.9999 12.5 25.9999H17.5C18.0523 25.9999 18.5 25.5522 18.5 24.9999V23.9999C18.5 23.4476 18.0523 22.9999 17.5 22.9999ZM17.5 24.9999H12.5V23.9999H17.5V24.9999Z" fill="#F1F6FF"/>
</svg>
