<svg width="36" height="36" viewBox="0 0 36 36" fill="none" xmlns="http://www.w3.org/2000/svg">
<path d="M4.02931 33.8931L10.4634 31.914L19 34V34.25C19.0001 34.25 19.0002 34.25 19.0002 34.25C28.2367 34.2499 35.75 26.7365 35.75 17.5C35.75 8.26345 28.2365 0.75 19 0.75C9.76345 0.75 2.25 8.26345 2.25 17.5C2.25 20.6131 3.10484 23.6371 4.72773 26.2714C4.40389 27.4088 3.96277 29.0015 3.59697 30.3304C3.40825 31.016 3.23951 31.6315 3.11716 32.0786L2.97172 32.6103L2.93129 32.7582L2.92026 32.7986L2.91721 32.8097L2.91619 32.8134L2.91572 32.8151C2.8738 32.968 2.87389 33.1294 2.91597 33.2823C2.95805 33.4352 3.04057 33.5739 3.15483 33.6839L3.15486 33.6839C3.38714 33.9073 3.72265 33.987 4.02904 33.8932L4.02931 33.8931ZM19 32.4808H18.9998C16.1894 32.4835 13.4352 31.6937 11.0534 30.2019L11.0533 30.2019C10.9457 30.1345 10.8248 30.0911 10.6989 30.0746C10.5729 30.0581 10.445 30.0689 10.3236 30.1063C10.3236 30.1063 10.3236 30.1063 10.3235 30.1063L5.04725 31.7304C5.53606 29.944 6.03276 28.1597 6.53733 26.3776C6.60795 26.1315 6.56796 25.8668 6.42947 25.6524L6.4291 25.6518C4.85251 23.2258 4.01524 20.3937 4.01923 17.5003V17.5C4.01923 9.2402 10.7402 2.51923 19 2.51923C27.2598 2.51923 33.9808 9.2402 33.9808 17.5C33.9808 25.7598 27.2598 32.4808 19 32.4808Z" fill="url(#paint0_linear_1614_76)" stroke="url(#paint1_linear_1614_76)" stroke-width="0.5"/>
<path d="M29.184 20.9863C28.0492 20.3449 27.0828 19.7016 26.3776 19.2323C25.8391 18.8743 25.45 18.6159 25.1647 18.4701C24.3674 18.0652 23.7631 18.3512 23.5331 18.5877C23.5045 18.6168 23.4788 18.6486 23.4563 18.6828C22.6282 19.9475 21.5468 21.1571 21.2302 21.2222C20.8645 21.164 19.1523 20.1734 17.4507 18.731C15.7134 17.2573 14.6203 15.8462 14.4599 14.885C15.5744 13.7173 15.9759 12.9827 15.9759 12.1466C15.9759 11.2849 14.0013 7.68735 13.6441 7.32378C13.2857 6.95957 12.4785 6.90263 11.2447 7.15294C11.1258 7.17744 11.0166 7.23682 10.9305 7.32378C10.7811 7.47584 7.28561 11.1035 8.94669 15.5001C10.7701 20.3255 15.4503 25.9343 21.4171 26.8454C22.0952 26.9487 22.7309 27 23.326 27C26.8362 27 28.908 25.2022 29.4914 21.6359C29.5126 21.5085 29.4944 21.3776 29.4393 21.2613C29.3843 21.1449 29.295 21.0488 29.184 20.9863ZM21.5997 25.6077C15.2898 24.6446 11.3154 18.2811 10.0945 15.0508C8.88337 11.8469 11.1168 8.99021 11.6775 8.34441C12.1336 8.26557 12.6137 8.2324 12.8142 8.26431C13.2328 8.85692 14.6824 11.6447 14.7463 12.1466C14.7463 12.4751 14.6412 12.9326 13.3896 14.2073C13.3324 14.2653 13.287 14.3343 13.2561 14.4102C13.2252 14.4861 13.2093 14.5675 13.2094 14.6497C13.2094 17.9263 19.9989 22.4719 21.2013 22.4719C22.247 22.4719 23.6106 20.6828 24.387 19.517C24.4672 19.5249 24.5448 19.5496 24.6151 19.5896C24.8364 19.7028 25.22 19.9575 25.7051 20.2804C26.3457 20.7066 27.1965 21.2723 28.201 21.8586C27.7449 24.0927 26.4698 26.3523 21.5997 25.6077Z" fill="url(#paint2_linear_1614_76)"/>
<defs>
<linearGradient id="paint0_linear_1614_76" x1="2.5" y1="15.9044" x2="46.7956" y2="16.0011" gradientUnits="userSpaceOnUse">
<stop stop-color="#105BFB"/>
<stop offset="1" stop-color="#5061FF"/>
</linearGradient>
<linearGradient id="paint1_linear_1614_76" x1="2.5" y1="15.9044" x2="46.7956" y2="16.0011" gradientUnits="userSpaceOnUse">
<stop stop-color="#105BFB"/>
<stop offset="1" stop-color="#5061FF"/>
</linearGradient>
<linearGradient id="paint2_linear_1614_76" x1="8.5" y1="16.033" x2="36.6881" y2="16.0976" gradientUnits="userSpaceOnUse">
<stop stop-color="#105BFB"/>
<stop offset="1" stop-color="#5061FF"/>
</linearGradient>
</defs>
</svg>
